<svg width="300" height="276" viewBox="0 0 300 276" fill="none" xmlns="http://www.w3.org/2000/svg">
<path d="M275.448 191.448C275.418 191.458 275.378 191.468 275.348 191.478C272.672 192.334 269.934 192.979 267.158 193.408C252.368 195.838 232.818 194.658 228.018 192.648C227.298 192.31 226.696 191.763 226.291 191.078C225.886 190.393 225.697 189.602 225.748 188.808V188.778C225.75 188.524 225.766 188.27 225.798 188.018C226.198 184.678 211.658 188.748 203.258 191.388C203.241 191.394 203.224 191.4 203.208 191.408C202.008 191.774 199.493 192.287 199.078 191.388C197.883 188.793 203.224 186.581 205.431 179.009C208.791 170.929 211.479 157.943 209.479 143.709L282.248 141.904C276.819 142.953 284.748 142.464 284.628 143.714C284.008 150.234 286.808 171.064 294.548 185.194C300.688 195.948 278.388 195.258 275.448 191.448Z" fill="#B73A61"/>
<path d="M247.051 150.12C267.802 150.12 284.624 147.252 284.624 143.713C284.624 140.175 267.802 137.306 247.051 137.306C226.3 137.306 209.478 140.175 209.478 143.713C209.478 147.252 226.3 150.12 247.051 150.12Z" fill="#E45A48"/>
<path d="M225.8 188.018C226.2 184.678 211.66 188.748 203.26 191.388C204.226 190.928 221.848 183.861 227.187 170.674C227.217 170.606 227.27 170.551 227.337 170.518C227.404 170.486 227.481 170.478 227.553 170.497C227.625 170.515 227.688 170.559 227.731 170.62C227.774 170.681 227.794 170.755 227.787 170.829L225.748 188.778C225.75 188.524 225.768 188.27 225.8 188.018Z" fill="#A02156"/>
<path d="M275.507 183.173L275.348 191.478C272.672 192.334 269.934 192.979 267.158 193.408C269.01 191.725 272.886 187.808 274.695 183.024C274.728 182.93 274.794 182.851 274.88 182.802C274.966 182.752 275.067 182.734 275.165 182.752C275.262 182.77 275.351 182.822 275.413 182.899C275.476 182.977 275.509 183.074 275.507 183.173Z" fill="#A02156"/>
<path d="M3.5 242.748C3.5 251.235 6.87142 259.374 12.8726 265.375C18.8737 271.377 27.0131 274.748 35.5 274.748H154.6C163.087 274.748 171.226 271.377 177.227 265.375C183.229 259.374 186.6 251.235 186.6 242.748V193.448L3.5 190.448V242.748Z" fill="#9D9FFC"/>
<path d="M186.6 242.748V233.869C172.863 221.801 150.042 221.55 150.042 221.55L148.631 225.006L150.042 227.098L145.018 233.028L108.192 231.544L90.602 239.844L74.948 237.139L70.315 240.585L50.8 235.141L12.634 238.131L6.38403 256.02C8.29977 260.212 11.0966 263.942 14.5841 266.955C18.0715 269.969 22.1675 272.195 26.593 273.482L36.503 274.748H154.6C163.087 274.748 171.226 271.377 177.227 265.375C183.229 259.374 186.6 251.235 186.6 242.748Z" fill="#898BF5"/>
<path d="M171.477 252.33C171.477 252.33 179.331 243.175 179.144 227.405C179.144 227.405 186.239 237.649 178.483 250.227C170.727 262.805 171.477 252.33 171.477 252.33Z" fill="#6566DB"/>
<path d="M156.173 256.94C160.429 253.906 163.373 249.369 164.411 244.246C164.795 242.059 165.747 236.646 162.243 232.158C160.395 229.88 157.85 228.271 155 227.579C158.199 226.961 161.514 227.589 164.264 229.336C169.581 233.036 169.382 240.336 169.341 241.867C169.133 249.521 163.908 256.94 163.908 256.94H156.171H156.173Z" fill="#6566DB"/>
<path d="M162.393 252.289C165.779 249.044 168.094 244.842 169.028 240.246C170.128 234.237 166.499 226.225 168.703 218.789C171.103 210.677 179.369 206.696 179.369 206.696C179.369 206.696 173.335 213.306 172.634 219.866C171.707 228.554 175.434 231.458 175.834 238.966C176.134 242.927 175.159 246.879 173.052 250.246C172.152 251.63 173.052 256.782 173.052 256.782H163.505L162.385 252.311L162.393 252.289Z" fill="#6566DB"/>
<path d="M14.3591 226.478C14.3207 226.17 14.2656 225.863 14.1941 225.561C14.1281 225.285 14.0521 225.028 13.9701 224.788C14.4632 224.776 14.9416 224.617 15.3441 224.332C16.6291 223.432 17.0111 221.249 16.4061 220.822C15.8501 220.431 14.1571 221.307 13.4551 222.511C13.4461 222.477 13.4401 222.445 13.4301 222.411C13.2888 221.908 13.101 221.419 12.8691 220.951C13.466 220.767 14.0004 220.421 14.4129 219.952C14.8254 219.483 15.0999 218.909 15.2061 218.293C15.2951 217.665 15.1901 216.7 14.6771 216.499C14.1091 216.277 13.3141 217.099 12.9611 217.599C12.7121 217.959 12.5226 218.357 12.4001 218.777C12.3741 218.605 12.3451 218.429 12.3081 218.247C12.1768 217.595 11.9843 216.957 11.7331 216.341C12.4141 216.348 13.5821 215.191 13.8331 213.896C13.9521 213.285 13.9381 212.275 13.4431 212.044C12.8961 211.789 11.9491 212.576 11.5061 213.365C11.4395 213.485 11.381 213.61 11.3311 213.738C11.2717 213.373 11.1759 213.016 11.0451 212.67C11.0281 212.626 10.9521 212.431 10.8451 212.201C11.3121 211.903 11.6885 211.482 11.9334 210.984C12.1782 210.487 12.2822 209.932 12.2341 209.38C12.1641 208.687 11.7671 207.736 11.1581 207.654C10.4231 207.554 9.58905 208.754 9.45805 209.848C9.39358 210.474 9.51057 211.104 9.79505 211.665C9.73308 211.894 9.69092 212.129 9.66905 212.365C9.35649 211.844 8.87681 211.444 8.30805 211.23C7.87205 211.087 7.13505 211.018 6.84305 211.401C6.47805 211.881 6.96805 212.869 7.54305 213.401C7.81953 213.66 8.14782 213.857 8.50621 213.98C8.86461 214.102 9.24493 214.147 9.62205 214.112C9.64814 214.551 9.70968 214.988 9.80605 215.417C9.83205 215.53 9.86205 215.635 9.89105 215.742C9.65828 215.541 9.39883 215.372 9.12005 215.242C8.29305 214.867 7.05805 214.793 6.76705 215.325C6.50505 215.805 7.09405 216.631 7.55305 217.054C7.94453 217.412 8.41382 217.675 8.92399 217.821C9.43415 217.967 9.97127 217.993 10.4931 217.896C10.5681 218.433 10.6691 219.006 10.8111 219.614C10.8601 219.823 10.9111 220.025 10.9651 220.223C10.6813 219.947 10.3581 219.714 10.0061 219.533C9.46005 219.26 8.37205 218.906 7.97405 219.369C7.61605 219.787 7.97405 220.689 8.35005 221.201C8.72834 221.682 9.22829 222.054 9.79823 222.277C10.3682 222.501 10.9874 222.568 11.5921 222.472C11.6431 222.943 11.7051 223.428 11.7921 223.94C11.8061 224.024 11.8231 224.104 11.8381 224.186C10.6751 223.356 8.93005 223.099 8.51505 223.638C8.01505 224.284 9.13305 226.456 10.7751 226.977C11.2967 227.148 11.8579 227.155 12.3841 226.999C12.393 227.334 12.4204 227.667 12.4661 227.999C12.4931 228.199 12.5271 228.382 12.5661 228.563C11.5341 227.821 9.97405 227.749 9.66605 228.263C9.25705 228.952 10.8401 231.172 12.3861 231.131C12.5573 231.124 12.727 231.095 12.8911 231.046L12.9321 231.819L15.3621 232.095C15.3508 231.591 15.2969 231.09 15.2011 230.595C15.1015 230.086 14.9569 229.587 14.7691 229.103C15.1709 229.086 15.5659 228.992 15.9331 228.828C17.4511 228.119 18.2551 225.885 17.6951 225.328C17.2001 224.825 15.3431 225.4 14.3591 226.478Z" fill="#7A7CF0"/>
<path d="M26.994 213.629C27.4385 213.773 27.9188 213.76 28.355 213.593C29.713 213.112 30.47 211.222 29.987 210.637C29.634 210.209 28.587 210.437 27.946 210.824C27.5793 211.052 27.2658 211.355 27.027 211.715C27.027 211.557 27.027 211.406 27.027 211.246C27.027 211.037 27.017 210.834 27.011 210.629C27.2537 210.212 27.4005 209.747 27.4408 209.266C27.4811 208.786 27.4139 208.302 27.244 207.851C26.976 207.208 26.321 206.413 25.715 206.511C24.983 206.63 24.531 208.017 24.727 209.102C24.8564 209.813 25.2294 210.456 25.782 210.922C25.671 211.422 25.569 211.96 25.482 212.534C25.459 212.693 25.44 212.848 25.421 213.002C25.406 212.98 25.394 212.957 25.378 212.936C24.919 212.296 23.904 211.551 23.178 211.751C22.452 211.951 22.315 213.043 22.528 213.772C22.7037 214.286 23.0098 214.745 23.4163 215.105C23.8228 215.465 24.3158 215.714 24.847 215.826C24.617 216.395 24.389 216.99 24.169 217.617C24.03 218.017 23.902 218.401 23.781 218.783C23.381 217.552 22.133 216.515 21.49 216.783C20.815 217.068 20.701 218.838 21.42 219.997C21.7594 220.583 22.3021 221.024 22.945 221.236C22.764 221.659 22.587 222.112 22.421 222.603C22.3543 222.797 22.2937 222.988 22.239 223.175C21.539 221.96 20.139 221.008 19.509 221.311C18.709 221.697 18.673 224.364 20.018 225.478C20.4159 225.817 20.9117 226.019 21.433 226.056C21.349 226.367 21.27 226.693 21.202 227.042C21.153 227.294 21.114 227.542 21.081 227.775C20.306 226.934 18.943 226.585 18.481 227.05C17.959 227.573 18.487 229.207 19.547 229.956C19.9052 230.208 20.3152 230.376 20.747 230.449C20.6212 231.139 20.5433 231.837 20.514 232.538C20.4842 233.275 20.5073 234.013 20.583 234.746L23.366 234.723C23.254 234.056 23.1417 233.39 23.029 232.723C23.481 232.834 23.9541 232.824 24.401 232.694C25.92 232.249 26.989 230.279 26.547 229.675C26.147 229.132 24.312 229.406 23.247 230.291C23.2757 230.079 23.3017 229.863 23.325 229.643C23.366 229.26 23.394 228.891 23.416 228.532C23.9504 228.634 24.5024 228.594 25.016 228.414C26.759 227.803 27.884 225.441 27.332 224.764C26.925 224.264 25.432 224.464 24.245 225.154C24.292 224.996 24.345 224.841 24.385 224.675C24.505 224.221 24.594 223.79 24.663 223.382C25.5871 223.489 26.5164 223.23 27.252 222.661C27.925 222.124 28.623 221.068 28.267 220.469C27.911 219.87 26.682 219.969 25.905 220.29C25.7909 220.337 25.68 220.391 25.573 220.453C25.9072 219.571 26.1381 218.652 26.261 217.717C27.0985 217.895 27.9722 217.736 28.694 217.276C29.355 216.842 30.082 215.934 29.807 215.356C29.532 214.778 28.399 214.769 27.661 214.993C27.3322 215.098 27.023 215.256 26.746 215.462C26.791 215.244 26.833 215.02 26.869 214.786C26.929 214.38 26.969 213.993 26.994 213.629Z" fill="#7A7CF0"/>
<path d="M80.968 263.147C69.7301 254.892 56.1869 250.369 42.244 250.214C41.4167 248.259 40.3252 246.427 39 244.769C33 237.269 24 235.789 20.979 235.429L3.5 236.356V242.748C3.5 251.235 6.87142 259.374 12.8726 265.375C18.8737 271.377 27.0131 274.748 35.5 274.748H92.85C89.4111 270.38 85.4167 266.48 80.968 263.147Z" fill="#7A7CF0"/>
<path d="M182.719 258.033C179.907 256.387 176.848 255.205 173.66 254.533C161.39 251.972 148.198 257.333 139.317 268.133L155.07 274.733C160.746 274.653 166.298 273.064 171.157 270.129C176.016 267.194 180.007 263.02 182.719 258.033Z" fill="#6E70DB"/>
<path d="M80.385 248.56C76.698 245.398 63.885 243.395 60.972 243.434C58.059 243.473 52.738 248.59 52.1 249.806C51.6707 250.827 51.4275 251.916 51.382 253.022L83.596 252.477C82.6039 251.109 81.5317 249.801 80.385 248.56Z" fill="#7A7CF0"/>
<path d="M154.6 274.748C160.518 274.756 166.322 273.115 171.359 270.008C142.088 258.731 100.242 246.736 57.119 251.73C36.756 254.089 24.588 260.458 14.809 267.15C20.5824 272.064 27.9185 274.758 35.5 274.75L154.6 274.748Z" fill="#5F60D6"/>
<path d="M56.6 266.692C56.6 265.669 57.0064 264.688 57.73 263.964C58.4535 263.241 59.4348 262.834 60.458 262.834C61.4812 262.834 62.4625 263.241 63.186 263.964C63.9095 264.688 64.316 265.669 64.316 266.692H56.6Z" fill="#7A7CF0"/>
<path d="M65.231 262.245C65.231 261.222 65.6374 260.241 66.3609 259.517C67.0845 258.793 68.0657 258.387 69.089 258.387C70.1122 258.387 71.0935 258.793 71.817 259.517C72.5405 260.241 72.947 261.222 72.947 262.245H65.231Z" fill="#7A7CF0"/>
<path d="M112.7 265.514C112.7 264.491 113.106 263.509 113.83 262.786C114.553 262.062 115.535 261.656 116.558 261.656C117.581 261.656 118.562 262.062 119.286 262.786C120.009 263.509 120.416 264.491 120.416 265.514H112.7Z" fill="#7A7CF0"/>
<path d="M123.559 271.269C123.559 270.246 123.965 269.265 124.689 268.541C125.412 267.817 126.394 267.411 127.417 267.411C128.44 267.411 129.421 267.817 130.145 268.541C130.868 269.265 131.275 270.246 131.275 271.269H123.559Z" fill="#7A7CF0"/>
<path d="M70.985 270.615C70.985 270.108 71.0848 269.607 71.2787 269.139C71.4725 268.671 71.7567 268.245 72.115 267.887C72.4732 267.529 72.8985 267.245 73.3666 267.051C73.8347 266.857 74.3363 266.757 74.843 266.757C75.3496 266.757 75.8513 266.857 76.3194 267.051C76.7874 267.245 77.2128 267.529 77.571 267.887C77.9292 268.245 78.2134 268.671 78.4073 269.139C78.6012 269.607 78.701 270.108 78.701 270.615H70.985Z" fill="#7A7CF0"/>
<path fill-rule="evenodd" clip-rule="evenodd" d="M147.372 183.487C148.518 184.382 149.901 184.922 151.35 185.041L158.182 185.619L165.33 186.119C166.636 186.218 167.943 185.94 169.096 185.319C175.123 182.076 172.031 172.482 165.179 178.192C170.74 171.968 161.561 167.539 159.741 175.702C161.553 165.202 146.483 166.06 151.998 177.381C146.907 170.768 140.642 178.049 147.372 183.487Z" fill="#754BE0"/>
<path fill-rule="evenodd" clip-rule="evenodd" d="M24.971 181.5L70.834 177.953C72.1904 177.853 73.5118 177.475 74.7167 176.844C75.9217 176.214 76.9846 175.343 77.84 174.285C86.182 163.885 75.35 151.985 67.859 166.393C75.69 151.493 56.221 138.086 51.884 161.475C53.122 145.83 33.922 145.229 38.307 166.019C30.753 145.466 11.971 161.373 25.997 173.619C16.844 164.799 9.62297 173.185 18.36 179.66C20.2708 181.048 22.6178 181.701 24.971 181.5Z" fill="#776FD8"/>
<path d="M90.1999 174.251C94.1819 165.891 85.2999 163.351 84.1319 171.164C78.3879 158.504 69.1689 164.846 74.9319 175.036C75.3546 175.781 75.9807 176.391 76.737 176.793C77.4934 177.196 78.3487 177.375 79.2029 177.309L86.5119 176.743C87.2912 176.687 88.0421 176.428 88.6894 175.99C89.3367 175.553 89.8576 174.953 90.1999 174.251Z" fill="#6F56DE"/>
<path d="M152.4 182.848C151.2 182.848 150 182.848 148.9 182.948C137.4 177.248 110.4 173.448 79.1 173.748C37.3 174.148 3.5 181.548 3.5 190.448C3.5 199.348 37.5 206.248 79.3 205.848C94.8413 205.774 110.354 204.504 125.7 202.048C132.5 204.048 142 205.248 152.6 205.148C173.3 204.948 186.6 199.648 186.6 193.448C186.5 187.348 173.2 182.648 152.4 182.848Z" fill="#BAC0FF"/>
<path d="M25.572 238.108C26.633 234.172 21.872 226.443 13.286 223.208C11.7137 222.561 10.0141 222.284 8.31778 222.396C6.62142 222.508 4.97335 223.008 3.5 223.856V242.75C3.5 242.988 3.513 243.222 3.518 243.459C4.74616 244.127 6.07764 244.584 7.457 244.811C16.509 246.331 24.509 242.044 25.572 238.108Z" fill="#37BACA"/>
<path d="M23.658 237.592C24.571 234.211 20.483 227.571 13.104 224.792C11.5282 224.131 9.802 223.911 8.11072 224.156C6.41944 224.402 4.82691 225.103 3.50403 226.185V241.4C4.85447 242.417 6.43415 243.086 8.10403 243.349C15.873 244.656 22.746 240.974 23.658 237.592Z" fill="#5FDFEF"/>
<path d="M10.609 236.078C8.082 236.785 6.578 238.808 7.249 240.596C7.92 242.384 10.51 243.26 13.036 242.553C15.562 241.846 17.067 239.824 16.396 238.036C15.725 236.248 13.135 235.371 10.609 236.078Z" fill="#37BACA"/>
<path d="M10.649 230.575C9.05799 231.021 8.11099 232.293 8.53199 233.418C8.95299 234.543 10.585 235.093 12.176 234.648C13.767 234.203 14.714 232.93 14.292 231.806C13.87 230.682 12.24 230.13 10.649 230.575Z" fill="#37BACA"/>
<path d="M17.8891 233.291C16.8591 233.58 16.2481 234.408 16.5241 235.142C16.7574 235.535 17.1231 235.833 17.5558 235.981C17.9884 236.129 18.4597 236.118 18.8851 235.95C19.9151 235.662 20.5261 234.833 20.2511 234.099C20.0174 233.706 19.6515 233.409 19.2187 233.261C18.7859 233.112 18.3146 233.123 17.8891 233.291Z" fill="#37BACA"/>
<path d="M164.7 244.471C155.172 243.942 147.4 249.296 146.759 253.485C146.118 257.674 151.924 265.111 161.172 267.463C168.457 269.315 174.59 264.925 175.665 257.919C176.74 250.913 172.2 244.888 164.7 244.471Z" fill="#37BACA"/>
<path d="M164.205 246.053C156.02 245.6 149.344 250.198 148.792 253.797C148.24 257.396 153.23 263.784 161.174 265.806C162.534 266.159 163.953 266.223 165.339 265.993C166.725 265.764 168.048 265.246 169.221 264.473C170.395 263.7 171.393 262.69 172.152 261.507C172.91 260.325 173.412 258.996 173.625 257.608C173.838 256.219 173.758 254.801 173.389 253.445C173.019 252.09 172.37 250.826 171.482 249.737C170.594 248.648 169.488 247.758 168.234 247.123C166.981 246.489 165.608 246.124 164.205 246.053Z" fill="#5FDFEF"/>
<path d="M159.194 247.445C156.665 248.467 155.345 250.73 156.244 252.5C157.143 254.27 159.921 254.877 162.45 253.855C164.979 252.833 166.299 250.569 165.399 248.8C164.499 247.031 161.722 246.423 159.194 247.445Z" fill="#37BACA"/>
<path d="M161 255.514C159.408 256.157 158.576 257.581 159.141 258.694C159.706 259.807 161.455 260.188 163.047 259.545C164.639 258.902 165.471 257.477 164.906 256.364C164.341 255.251 162.588 254.87 161 255.514Z" fill="#37BACA"/>
<path d="M153.913 254.943C152.883 255.359 152.347 256.286 152.713 257.013C153 257.393 153.412 257.658 153.877 257.76C154.341 257.863 154.827 257.797 155.247 257.574C156.277 257.158 156.813 256.231 156.447 255.505C156.16 255.125 155.748 254.86 155.284 254.757C154.819 254.654 154.333 254.72 153.913 254.943Z" fill="#37BACA"/>
<path fill-rule="evenodd" clip-rule="evenodd" d="M29.9 189.828C29.9 187.978 32.78 186.258 37.77 184.798C28.385 185.93 19.831 187.76 19.199 190.705C22.7725 191.856 26.6077 191.919 30.217 190.885C30.016 190.569 29.9063 190.203 29.9 189.828Z" fill="white"/>
<path fill-rule="evenodd" clip-rule="evenodd" d="M141.948 187.848C141.948 184.028 122.618 180.928 98.788 180.928C97.098 180.928 95.428 180.948 93.788 180.978C115.268 181.368 131.948 184.298 131.948 187.848C131.948 189.581 127.964 191.165 121.395 192.379C124.426 192.863 127.511 192.913 130.557 192.529C137.626 191.3 141.948 189.653 141.948 187.848Z" fill="white"/>
<path fill-rule="evenodd" clip-rule="evenodd" d="M77.077 181.569C76.292 181.546 75.483 181.534 74.666 181.534C64.974 181.534 57.119 183.142 57.119 185.121C57.119 187.1 64.974 188.708 74.666 188.708C75.266 188.708 75.8567 188.702 76.438 188.69C67.894 188.449 61.325 186.947 61.325 185.138C61.325 183.277 68.226 181.752 77.077 181.569Z" fill="white"/>
<path opacity="0.45" d="M186.6 193.448C186.5 187.348 173.2 182.648 152.4 182.848C151.2 182.848 150 182.848 148.9 182.948C137.4 177.248 110.4 173.448 79.1 173.748C37.3 174.148 3.5 181.548 3.5 190.448L186.6 193.448Z" fill="#BAC0FF"/>
<path d="M63.4401 247.623C63.2253 246.937 62.832 246.32 62.3005 245.836C61.769 245.351 61.1183 245.017 60.4151 244.867C56.5151 243.977 46.6231 249.559 46.6231 249.559C32.4881 252.623 26.5231 257.459 25.5531 258.942C24.7671 260.152 25.2531 262.354 25.2531 262.354C25.9097 265.429 28.2431 266.983 32.2531 267.016C36.1581 267.031 41.9341 264.516 44.0091 263.116C46.7121 261.406 48.9304 259.03 50.4511 256.216L51.3631 257.932C54.3751 257.643 57.3277 256.91 60.1251 255.756C62.7151 254.693 64.4651 252.304 64.5431 251.438L63.4401 247.623Z" fill="#4D3545"/>
<path d="M25.553 258.942C25.1518 259.549 24.992 260.284 25.105 261.002C25.625 263.347 28.282 264.38 31.705 264.408C35.611 264.424 41.386 261.908 43.461 260.508C46.1649 258.799 48.3833 256.423 49.903 253.608L47.351 249.166C46.893 249.41 46.626 249.56 46.626 249.56C32.488 252.623 26.519 257.454 25.553 258.942Z" fill="#301E2A"/>
<path d="M25.3531 257.994C25.61 258.348 25.9819 258.601 26.4051 258.711C29.036 256.323 32.1497 254.528 35.5351 253.449L28.3501 251.757C26.6241 252.044 23.3841 254.907 25.3531 257.994Z" fill="#573652"/>
<path d="M55.5811 221.785L54.6811 224.635L53.9961 221.735C53.5791 221.746 53.1401 221.768 52.6541 221.816L52.3851 225.497L50.6851 222.087C50.4271 222.131 50.1631 222.179 49.8851 222.232C43.6061 223.461 40.6851 226.068 40.6851 226.068L47.8711 231.627L57.3271 229.98L58.8771 224.245C58.9331 223.3 58.2741 222.065 55.5811 221.785Z" fill="#714B67"/>
<path d="M55.045 223.49L54.685 224.635L54.394 223.4C53.7786 223.34 53.1592 223.336 52.543 223.387L52.389 225.496L51.406 223.53C51.179 223.567 50.956 223.6 50.715 223.65C43.815 225.089 41.635 227.15 41.635 227.15C41.635 227.15 49.723 233.628 56.758 228.35L58.286 225.296C57.8976 224.79 57.4096 224.368 56.8523 224.058C56.2949 223.747 55.6799 223.554 55.045 223.49Z" fill="#5A3A50"/>
<path d="M58.885 224.244C55.548 231.375 43.385 229.774 38.041 226.327L40.367 230C40.6203 230.656 40.835 231.302 41.011 231.937C42.0619 235.113 42.1905 238.522 41.382 241.768C41.335 246.468 37.174 255.746 41.111 259.583C42.7629 259.681 44.4062 259.282 45.829 258.437C47.3794 257.282 48.8109 255.976 50.102 254.537C53.0956 254.256 56.0206 253.474 58.755 252.224C61.173 251.016 62.736 249.481 62.691 247.503C62.558 241.588 59.221 240.439 58.859 239.179C58.565 238.158 60.116 236.663 58.885 224.244Z" fill="#815677"/>
<path d="M29.714 258.763C30.388 257.95 29.161 257.392 29.614 256.625" stroke="#97728D" stroke-width="0.582" stroke-miterlimit="10" stroke-linecap="round"/>
<path d="M28.5 256.744C28.108 258.752 26.693 256.892 27.144 256.126" stroke="#97728D" stroke-width="0.582" stroke-miterlimit="10" stroke-linecap="round"/>
<path d="M42.453 226.253C39.945 225.221 37.758 225.935 35.789 227.5C35.8418 227.594 35.8802 227.695 35.903 227.8C35.947 228.009 35.929 228.227 35.8512 228.426C35.7734 228.626 35.6392 228.798 35.465 228.922C35.8921 229.107 36.2493 229.423 36.4853 229.825C36.7214 230.226 36.8241 230.692 36.7786 231.155C36.7331 231.618 36.5419 232.055 36.2323 232.403C35.9228 232.751 35.5109 232.991 35.056 233.09C34.986 233.105 34.916 233.105 34.846 233.113C37.256 234.195 40.073 233.847 40.846 236.402C41.2744 238.111 41.4738 239.869 41.439 241.631C40.194 243.356 37.97 246.396 37.97 246.396C34.305 246.1 30.6328 246.875 27.4 248.627C23.435 251.016 23.764 255.313 25.356 257.994C24.666 256.679 27.968 256.837 29.03 257.08C32.068 257.772 37.469 259.46 41.114 259.58C41.9859 259.612 42.8581 259.523 43.705 259.313C43.615 256.873 42.526 253.682 40.566 252.382C43.0271 250.92 45.1905 249.007 46.943 246.744C49.0286 244.421 50.1254 241.375 50 238.256C49.4 231.5 45.529 227.518 42.453 226.253Z" fill="#714B67"/>
<path d="M49.9221 243.248C49.9919 243.45 50.1183 243.627 50.2862 243.759C50.4542 243.891 50.6565 243.972 50.8691 243.993C51.0818 244.013 51.2957 243.972 51.4856 243.874C51.6754 243.776 51.8331 243.625 51.9398 243.44C52.0465 243.255 52.0978 243.043 52.0875 242.83C52.0772 242.617 52.0059 242.411 51.8818 242.237C51.7578 242.063 51.5864 241.928 51.3881 241.849C51.1897 241.77 50.9728 241.749 50.7631 241.79C50.4596 241.874 50.2014 242.074 50.0441 242.347C49.8868 242.62 49.8429 242.943 49.9221 243.248Z" fill="#5A3A50"/>
<path d="M50.618 237.533C50.6756 237.739 50.7912 237.923 50.9509 238.065C51.1106 238.207 51.3077 238.3 51.5187 238.333C51.7297 238.366 51.9458 238.338 52.1411 238.251C52.3365 238.165 52.5029 238.024 52.6205 237.846C52.7382 237.668 52.8021 237.459 52.8046 237.246C52.8072 237.032 52.7483 236.822 52.6349 236.641C52.5216 236.46 52.3586 236.316 52.1653 236.225C51.9721 236.134 51.7568 236.1 51.545 236.128C51.2364 236.193 50.9658 236.376 50.7922 236.64C50.6185 236.903 50.5559 237.224 50.618 237.533Z" fill="#5A3A50"/>
<path d="M49.78 232.32C49.8702 232.513 50.014 232.677 50.1944 232.791C50.3748 232.904 50.5841 232.964 50.7975 232.962C51.0108 232.961 51.2192 232.898 51.3977 232.781C51.5763 232.664 51.7175 232.499 51.8047 232.304C51.8918 232.109 51.9211 231.893 51.8891 231.683C51.8571 231.472 51.7651 231.274 51.6242 231.114C51.4832 230.954 51.2992 230.838 51.094 230.779C50.8889 230.721 50.6712 230.722 50.467 230.784C50.1739 230.899 49.9377 231.124 49.8092 231.411C49.6807 231.699 49.6702 232.025 49.78 232.32Z" fill="#5A3A50"/>
<path d="M50.768 242.428C43.795 243.799 41.461 239.554 41.461 239.554C41.461 239.554 40.877 239.649 41.097 240.69C41.297 241.626 43.75 244.614 50.966 243.706C51.0501 243.689 51.1297 243.655 51.2 243.606C51.2703 243.557 51.3295 243.494 51.3741 243.421C51.4187 243.348 51.4476 243.266 51.4589 243.182C51.4703 243.097 51.4638 243.01 51.44 242.928C51.4168 242.773 51.3331 242.633 51.2072 242.539C51.0812 242.446 50.9234 242.406 50.768 242.428Z" fill="#4D3545"/>
<path d="M51.427 236.83C42.7 239.483 40.85 236.4 40.85 236.4C40.85 236.4 40.28 236.839 40.894 237.729C42.177 239.588 47.452 239.446 51.694 238.088C51.8547 238.047 51.9934 237.946 52.0807 237.805C52.168 237.664 52.1972 237.495 52.162 237.333C52 236.586 51.427 236.83 51.427 236.83Z" fill="#4D3545"/>
<path d="M33.511 263.018C33.4159 262.619 33.4219 262.203 33.5284 261.807C33.6349 261.411 33.8386 261.047 34.121 260.75" stroke="#97728D" stroke-width="0.582" stroke-miterlimit="10" stroke-linecap="round"/>
<path d="M37.1 262.368C37.455 261.563 37.364 260.853 36.618 260.777" stroke="#97728D" stroke-width="0.582" stroke-miterlimit="10" stroke-linecap="round"/>
<path d="M123.9 253.98C124.06 253.279 124.404 252.633 124.896 252.109C125.388 251.584 126.011 251.2 126.7 250.995C130.514 249.802 140.818 254.589 140.818 254.589C155.151 256.533 161.481 260.879 162.561 262.289C163.439 263.434 163.133 265.666 163.133 265.666C162.72 268.783 160.515 270.517 156.519 270.866C152.627 271.188 146.672 269.138 144.493 267.903C141.663 266.411 139.265 264.215 137.529 261.528L136.754 263.31C133.728 263.259 130.727 262.76 127.848 261.829C125.183 260.973 123.248 258.729 123.105 257.872L123.9 253.98Z" fill="#4D3545"/>
<path d="M162.555 262.287C162.945 262.888 163.156 263.588 163.163 264.305C162.363 266.615 160.26 267.92 156.854 268.22C152.961 268.542 147.007 266.491 144.828 265.256C141.998 263.764 139.6 261.569 137.864 258.882L140.059 254.253C140.534 254.46 140.812 254.589 140.812 254.589C155.145 256.533 161.475 260.879 162.555 262.287Z" fill="#23201E"/>
<path d="M136.314 227.724L135.009 230.947L134.483 227.509C134.098 227.475 133.734 227.451 133.383 227.433C133.303 227.721 133.132 227.975 132.896 228.157C132.659 228.339 132.369 228.44 132.071 228.443C131.772 228.446 131.481 228.352 131.24 228.175C130.999 227.998 130.823 227.748 130.737 227.462C127.168 227.779 126.462 229.27 126.598 230.315L128.598 235.915L138.154 236.815L144.881 230.709C144.881 230.709 142.056 228.563 136.314 227.724Z" fill="#714B67"/>
<path d="M135.706 229.224L135.006 230.947L134.721 229.085H134.695C127.647 228.185 127.174 231.236 127.174 231.236L129.04 234.246C136.467 238.956 144.021 231.862 144.021 231.862C144.021 231.862 141.91 230.157 135.706 229.224Z" fill="#5A3A50"/>
<path d="M149.474 257.781C149.581 253.667 145.633 248.751 145.425 246.412C144.365 243.239 144.227 239.831 145.025 236.582C145.152 235.935 145.316 235.275 145.515 234.6L147.546 230.754C142.488 234.611 130.49 237.162 126.602 230.315C126.351 242.793 128.015 244.161 127.802 245.208C127.541 246.493 124.302 247.9 124.636 253.808C124.747 255.784 126.426 257.191 128.936 258.208C131.76 259.239 134.738 259.789 137.744 259.834C139.178 261.164 140.686 262.411 142.261 263.57C143.061 264.126 144.461 265.076 144.461 265.076C144.461 265.076 149.368 261.9 149.474 257.781Z" fill="#815677"/>
<path d="M136.968 248.645C136.914 248.852 136.802 249.039 136.645 249.184C136.488 249.328 136.293 249.425 136.082 249.462C135.872 249.499 135.655 249.475 135.458 249.392C135.261 249.309 135.092 249.171 134.971 248.995C134.85 248.819 134.783 248.612 134.776 248.398C134.77 248.185 134.825 247.974 134.935 247.791C135.045 247.608 135.206 247.46 135.397 247.366C135.589 247.271 135.804 247.234 136.016 247.258C136.325 247.318 136.598 247.497 136.776 247.757C136.954 248.016 137.023 248.335 136.968 248.645Z" fill="#5A3A50"/>
<path d="M135.885 242.914C135.844 243.124 135.743 243.317 135.595 243.471C135.447 243.625 135.257 243.733 135.05 243.782C134.842 243.832 134.624 243.82 134.423 243.749C134.221 243.679 134.044 243.551 133.913 243.383C133.782 243.214 133.702 243.012 133.683 242.799C133.663 242.586 133.706 242.372 133.804 242.183C133.903 241.994 134.054 241.837 134.24 241.731C134.426 241.625 134.638 241.575 134.851 241.586C135.163 241.627 135.446 241.79 135.64 242.038C135.833 242.287 135.921 242.601 135.885 242.914Z" fill="#5A3A50"/>
<path d="M162.937 261.254C162.419 261.187 161.948 260.916 161.629 260.502C161.311 260.087 161.169 259.563 161.237 259.045C161.277 258.752 161.383 258.472 161.547 258.226C161.372 258.158 161.214 258.05 161.088 257.911C160.962 257.771 160.869 257.605 160.818 257.424C160.767 257.242 160.759 257.052 160.795 256.867C160.83 256.683 160.908 256.509 161.022 256.359C160.782 256.178 160.527 256.019 160.258 255.885C157.356 254.412 154.248 253.386 151.039 252.841C151.039 252.841 146.73 247.897 145.353 246.275C145.18 244.522 145.241 242.753 145.534 241.016C146.224 237.878 150.193 238.705 152.586 236.288C153.455 235.411 152.986 234.378 151.64 233.141C151.302 233.575 150.814 233.867 150.271 233.957C149.728 234.047 149.171 233.93 148.711 233.629C148.251 233.327 147.921 232.864 147.787 232.33C147.653 231.797 147.725 231.232 147.988 230.749C147.208 230.441 146.37 230.306 145.532 230.354C144.695 230.402 143.878 230.632 143.138 231.027C140.171 232.527 136.629 236.801 136.563 243.586C136.681 246.707 138.014 249.659 140.276 251.812C142.2 253.931 144.507 255.668 147.076 256.931C145.225 258.381 144.354 262.631 144.456 265.073C145.167 265.511 149.311 268.473 158.023 268.184C159.186 268.188 160.318 267.811 161.246 267.11C162.175 266.41 162.848 265.424 163.163 264.305C163.331 263.301 163.377 262.28 163.3 261.265C163.179 261.273 163.057 261.269 162.937 261.254Z" fill="#714B67"/>
<path d="M136.851 237.8C136.765 237.996 136.624 238.162 136.446 238.28C136.268 238.398 136.06 238.462 135.846 238.465C135.632 238.468 135.422 238.409 135.241 238.296C135.06 238.183 134.915 238.02 134.824 237.827C134.733 237.634 134.699 237.418 134.727 237.206C134.755 236.995 134.843 236.795 134.981 236.632C135.119 236.469 135.301 236.349 135.505 236.286C135.709 236.224 135.927 236.221 136.133 236.279C136.428 236.388 136.669 236.608 136.803 236.893C136.937 237.177 136.955 237.503 136.851 237.8Z" fill="#5A3A50"/>
<path d="M136.025 247.873C143.084 248.692 145.257 244.148 145.257 244.148C145.257 244.148 145.957 244.24 145.675 245.248C145.433 246.105 143.182 249.477 135.917 249.139C135.756 249.115 135.61 249.031 135.509 248.904C135.408 248.776 135.36 248.615 135.373 248.453C135.387 248.291 135.462 248.14 135.583 248.031C135.704 247.923 135.862 247.864 136.025 247.868V247.873Z" fill="#4D3545"/>
<path d="M135.783 237.65C136.512 242.37 130.383 246.965 133.373 251.73" stroke="#4D3545" stroke-width="1.164" stroke-miterlimit="10" stroke-linecap="round"/>
<path d="M107.18 241.408C99.616 231.859 87.922 228.97 83.38 231.908C78.838 234.846 76.65 246.687 82.234 257.508C86.634 266.035 96.021 268.176 103.624 263.27C111.227 258.364 113.137 248.93 107.18 241.408Z" fill="#1BC8B3"/>
<path d="M105.252 242.277C98.752 234.077 88.708 231.592 84.802 234.113C80.896 236.634 79.02 246.813 83.817 256.113C87.598 263.438 95.662 265.278 102.192 261.063C108.722 256.848 110.369 248.739 105.252 242.277Z" fill="#53FFEA"/>
<path d="M103.64 245.744C104.569 243.386 102.795 240.218 99.678 238.669C96.561 237.12 93.2779 237.769 92.3509 240.132C91.4239 242.495 93.195 245.658 96.313 247.207C99.431 248.756 102.711 248.1 103.64 245.744Z" fill="#1BC8B3"/>
<path d="M95.9929 251.674C96.5769 250.191 95.4599 248.199 93.4929 247.223C91.5259 246.247 89.4659 246.659 88.8809 248.141C88.2959 249.623 89.4139 251.617 91.3809 252.592C93.3479 253.567 95.4079 253.157 95.9929 251.674Z" fill="#1BC8B3"/>
<path d="M89.653 242.87C90.035 241.902 89.314 240.606 88.044 239.97C86.774 239.334 85.436 239.611 85.054 240.579C84.672 241.547 85.393 242.843 86.663 243.479C87.933 244.115 89.272 243.838 89.653 242.87Z" fill="#1BC8B3"/>
<path d="M232.973 50.111C237.396 50.165 241.716 48.7708 245.273 46.1412C248.83 43.5115 251.43 39.7906 252.675 35.546C253.921 31.3013 253.744 26.7658 252.171 22.631C250.599 18.4962 247.718 14.9892 243.966 12.6446C240.215 10.3 235.8 9.24654 231.395 9.6449C226.989 10.0433 222.834 11.8715 219.565 14.851C216.295 17.8304 214.089 21.7974 213.284 26.1472C212.479 30.4969 213.118 34.9906 215.105 38.943C212.648 38.683 232.8 51.188 232.973 50.111Z" fill="#BABF54"/>
<path d="M233.918 132.312C238.306 126.585 237.299 119.128 231.258 119.369C226.773 119.548 216.333 123.196 210.099 125.331C206.199 126.665 197.923 129.574 197.923 129.574C197.133 129.831 196.475 130.387 196.088 131.122C195.701 131.857 195.616 132.714 195.851 133.511C195.977 133.906 196.18 134.273 196.448 134.589C196.717 134.905 197.046 135.164 197.416 135.351C197.786 135.539 198.19 135.65 198.604 135.68C199.018 135.709 199.433 135.656 199.826 135.523C199.056 135.799 198.425 136.367 198.069 137.104C197.713 137.84 197.66 138.687 197.922 139.463C198.185 140.238 198.74 140.879 199.47 141.249C200.2 141.618 201.046 141.687 201.826 141.439C201.433 141.572 201.071 141.782 200.76 142.057C200.449 142.332 200.196 142.666 200.016 143.04C199.836 143.414 199.732 143.819 199.71 144.234C199.689 144.648 199.75 145.063 199.89 145.453C200.187 146.229 200.774 146.858 201.528 147.207C202.281 147.556 203.142 147.597 203.925 147.322C203.925 147.322 212.244 144.622 216.115 143.309C226.965 139.633 230.715 136.493 233.918 132.312Z" fill="#A6A642"/>
<path d="M222.735 83.254C228.035 82.271 231.543 84.331 232.998 87.389C234.453 90.447 233.841 94.469 229.735 97.967C224.183 102.697 210.315 108.567 210.315 108.567C209.569 108.933 208.71 108.993 207.921 108.735C207.131 108.477 206.474 107.921 206.088 107.186C205.902 106.815 205.793 106.411 205.765 105.997C205.738 105.583 205.793 105.168 205.928 104.775C206.063 104.383 206.275 104.022 206.551 103.712C206.827 103.403 207.163 103.151 207.537 102.973C206.789 103.329 205.93 103.373 205.15 103.096C204.369 102.819 203.731 102.243 203.375 101.495C203.019 100.747 202.975 99.8885 203.252 99.1079C203.529 98.3274 204.105 97.689 204.853 97.333C204.479 97.5112 204.072 97.6129 203.658 97.6323C203.244 97.6516 202.83 97.5881 202.441 97.4455C202.051 97.303 201.694 97.0842 201.39 96.802C201.086 96.5198 200.842 96.1799 200.671 95.802C200.344 95.0386 200.327 94.1777 200.625 93.4022C200.922 92.6268 201.51 91.9978 202.264 91.649C202.264 91.649 215.564 84.582 222.735 83.254Z" fill="#A6A642"/>
<path d="M252.925 118.553C275.433 139.527 296.349 133.067 296.133 138.937C296.001 142.529 257.572 149.737 243.573 143.172L236.12 128.609L252.925 118.553Z" fill="#BABF54"/>
<path d="M207.957 112.365C205.331 128.856 216.876 144.406 233.742 147.096C239.013 147.936 244.18 146.896 248.873 145.284C259.198 141.745 267.231 133.443 269.036 122.105C271.662 105.613 261.563 73.964 245.786 71.448C228.958 68.764 210.582 95.873 207.957 112.365Z" fill="#BABF54"/>
<path d="M229.069 120.248C227.974 127.919 224.301 134.99 218.653 140.295C214.59 136.976 211.465 132.652 209.588 127.753C207.711 122.854 207.148 117.549 207.953 112.365C209.025 105.633 212.638 97.258 217.736 89.8C226.286 95.161 231.139 107.247 229.069 120.248Z" fill="#DCD847"/>
<path d="M222.282 37.709L247.982 33.198C250.709 41.1263 252.861 49.241 254.421 57.479C255.755 65.7572 256.491 74.1209 256.621 82.505L230.921 87.016C230.791 78.6319 230.055 70.2682 228.721 61.99C227.162 53.752 225.01 45.6372 222.282 37.709Z" fill="#BABF54"/>
<path d="M180.076 50.43C184.527 51.137 187.723 49.879 199.238 51.23C217.607 53.388 218.038 54.43 228.256 55.638C231.818 56.06 232.8 51.186 232.973 50.109L215.105 38.943C214.415 38.8674 213.717 38.9471 213.062 39.1761C212.407 39.405 211.811 39.7776 211.318 40.2665C210.826 40.7554 210.449 41.3482 210.215 42.0017C209.981 42.6551 209.896 43.3525 209.966 44.043C199.325 42.001 189.53 40.974 182.994 41.018C173.539 41.085 174.488 49.542 180.076 50.43Z" fill="#BABF54"/>
<path d="M172.405 28.654C173.063 29.079 173.823 26.743 176.222 26.228C177.166 26.028 178.64 25.96 179.416 24.763C179.589 24.4964 179.708 24.1984 179.766 23.8858C179.824 23.5733 179.82 23.2524 179.753 22.9415C179.687 22.6306 179.561 22.3358 179.381 22.0739C179.2 21.8119 178.971 21.5881 178.704 21.415C178.113 21.0689 177.426 20.9244 176.746 21.0033C176.066 21.0821 175.43 21.38 174.934 21.852C171.588 24.442 171.8 28.264 172.405 28.654Z" fill="#6F6F4C"/>
<path fill-rule="evenodd" clip-rule="evenodd" d="M179.2 29.759L228.64 48.754C231.896 50.107 235.401 50.009 236.753 46.754C237.403 45.1883 237.404 43.4286 236.757 41.8619C236.109 40.2952 234.866 39.0499 233.3 38.4L184.093 17.957C183.319 17.6355 182.488 17.4698 181.65 17.4693C180.811 17.4688 179.981 17.6336 179.206 17.9542C178.431 18.2748 177.727 18.7449 177.134 19.3377C176.541 19.9305 176.071 20.6343 175.75 21.409C175.101 22.9738 175.099 24.7325 175.746 26.2983C176.393 27.8641 177.635 29.1089 179.2 29.759Z" fill="#BABF54"/>
<path fill-rule="evenodd" clip-rule="evenodd" d="M193.5 23.814C191.192 25.894 188.121 26.114 186.641 24.306C185.161 22.498 185.832 19.345 188.141 17.265C190.45 15.185 193.52 14.965 195 16.773C196.48 18.581 195.806 21.734 193.5 23.814Z" fill="#BABF54"/>
<path fill-rule="evenodd" clip-rule="evenodd" d="M192.127 20.881C191.205 21.928 189.901 22.329 189.214 21.776C188.527 21.223 188.714 19.926 189.64 18.876C190.566 17.826 191.866 17.428 192.553 17.981C193.24 18.534 193.05 19.833 192.127 20.881Z" fill="#3E255F"/>
<path fill-rule="evenodd" clip-rule="evenodd" d="M188.481 18.508C187.244 21.129 184.798 22.408 183.017 21.363C181.236 20.318 180.795 17.347 182.031 14.725C183.267 12.103 185.713 10.825 187.495 11.871C189.277 12.917 189.717 15.887 188.481 18.508Z" fill="#BABF54"/>
<path fill-rule="evenodd" clip-rule="evenodd" d="M186.845 16.477C186.408 17.593 185.462 18.232 184.732 17.905C184.002 17.578 183.764 16.405 184.201 15.291C184.638 14.177 185.584 13.536 186.314 13.863C187.044 14.19 187.282 15.361 186.845 16.477Z" fill="#3E255F"/>
<path d="M213.8 48.747C213.939 48.7649 214.079 48.7279 214.192 48.644C214.304 48.5601 214.379 48.4358 214.401 48.2974C214.423 48.1591 214.39 48.0176 214.31 47.9029C214.23 47.7882 214.108 47.7093 213.97 47.683C212.893 47.5017 211.932 46.9025 211.294 46.0159C210.657 45.1292 210.396 44.0269 210.567 42.9485C210.739 41.8702 211.329 40.9031 212.209 40.2577C213.09 39.6122 214.19 39.3407 215.27 39.502C215.409 39.5199 215.549 39.4829 215.662 39.399C215.774 39.3151 215.849 39.1908 215.871 39.0524C215.893 38.9141 215.86 38.7726 215.78 38.6579C215.7 38.5432 215.578 38.4643 215.44 38.438C214.073 38.2205 212.675 38.555 211.555 39.3679C210.435 40.1808 209.683 41.4054 209.465 42.7725C209.248 44.1396 209.582 45.537 210.395 46.6575C211.208 47.7779 212.433 48.5295 213.8 48.747Z" fill="#6F6F4C"/>
<path d="M189.912 36.286C189.138 36.161 190.134 33.916 188.695 31.927C188.129 31.145 187.077 30.109 187.3 28.7C187.35 28.3861 187.46 28.085 187.626 27.8139C187.792 27.5428 188.01 27.3071 188.267 27.1202C188.524 26.9332 188.815 26.7988 189.124 26.7245C189.433 26.6501 189.754 26.6374 190.068 26.687C190.739 26.8258 191.346 27.1786 191.799 27.6925C192.251 28.2063 192.525 28.8533 192.578 29.536C193.333 33.7 190.62 36.4 189.912 36.286Z" fill="#6F6F4C"/>
<path fill-rule="evenodd" clip-rule="evenodd" d="M235.81 32.076C235.412 33.2405 234.678 34.2609 233.7 35.0079C232.722 35.7549 231.545 36.1949 230.317 36.2722C229.088 36.3496 227.865 36.0608 226.801 35.4424C225.737 34.8241 224.881 33.9039 224.34 32.7985C223.799 31.6931 223.599 30.4521 223.764 29.2326C223.929 28.0132 224.452 26.8701 225.267 25.9482C226.082 25.0262 227.152 24.3668 228.342 24.0535C229.532 23.7402 230.789 23.787 231.952 24.188C232.724 24.4516 233.436 24.8649 234.048 25.4043C234.66 25.9437 235.16 26.5985 235.518 27.3313C235.876 28.0641 236.087 28.8604 236.137 29.6746C236.187 30.4887 236.076 31.3048 235.81 32.076Z" fill="white"/>
<path fill-rule="evenodd" clip-rule="evenodd" d="M224.2 27.28C223.799 28.4559 223.057 29.4862 222.07 30.2406C221.083 30.9951 219.894 31.4396 218.654 31.518C217.414 31.5965 216.179 31.3052 215.104 30.6812C214.03 30.0572 213.165 29.1284 212.618 28.0125C212.072 26.8966 211.869 25.6436 212.035 24.4123C212.201 23.181 212.729 22.0266 213.551 21.0952C214.374 20.1639 215.454 19.4975 216.655 19.1805C217.857 18.8634 219.125 18.9099 220.3 19.314C221.08 19.5803 221.799 19.9978 222.417 20.5425C223.035 21.0871 223.54 21.7484 223.902 22.4883C224.264 23.2281 224.477 24.0322 224.528 24.8544C224.579 25.6767 224.468 26.5009 224.2 27.28Z" fill="white"/>
<path fill-rule="evenodd" clip-rule="evenodd" d="M232.656 22.137C231.607 21.7732 230.497 21.6212 229.389 21.6899C228.282 21.7585 227.199 22.0465 226.203 22.537C225.653 20.9283 224.625 19.5256 223.257 18.5159C221.889 17.5063 220.245 16.9376 218.546 16.8858C216.847 16.834 215.172 17.3015 213.745 18.226C212.318 19.1504 211.206 20.4879 210.559 22.0601C209.912 23.6323 209.759 25.3645 210.121 27.0257C210.484 28.6869 211.344 30.1982 212.587 31.3581C213.83 32.518 215.397 33.2713 217.08 33.5177C218.762 33.764 220.479 33.4917 222.003 32.737C222.457 34.0872 223.248 35.2994 224.301 36.259C225.354 37.2185 226.634 37.8939 228.021 38.2211C229.407 38.5484 230.854 38.5168 232.225 38.1293C233.596 37.7418 234.845 37.0113 235.855 36.0066C236.865 35.002 237.603 33.7565 237.997 32.3877C238.392 31.0189 238.432 29.5721 238.112 28.1839C237.792 26.7957 237.123 25.5119 236.17 24.4539C235.216 23.3958 234.008 22.5984 232.66 22.137H232.656ZM223.37 26.992C223.025 28.0037 222.388 28.8903 221.538 29.5395C220.689 30.1886 219.666 30.5712 218.6 30.6386C217.533 30.7061 216.47 30.4555 215.546 29.9185C214.622 29.3814 213.878 28.5822 213.408 27.622C212.938 26.6618 212.764 25.5839 212.908 24.5246C213.051 23.4654 213.506 22.4726 214.214 21.6719C214.922 20.8713 215.852 20.2987 216.886 20.0269C217.919 19.7551 219.011 19.7962 220.021 20.145C220.691 20.3743 221.309 20.7333 221.84 21.2016C222.37 21.6699 222.804 22.2383 223.115 22.8742C223.426 23.5102 223.609 24.2012 223.652 24.9077C223.696 25.6143 223.6 26.3225 223.37 26.992ZM235.034 31.808C234.689 32.8197 234.052 33.7063 233.202 34.3555C232.353 35.0046 231.33 35.3872 230.264 35.4546C229.197 35.5221 228.134 35.2715 227.21 34.7345C226.286 34.1974 225.542 33.3982 225.072 32.438C224.602 31.4778 224.428 30.3999 224.572 29.3406C224.715 28.2814 225.17 27.2886 225.878 26.4879C226.586 25.6873 227.516 25.1147 228.55 24.8429C229.583 24.5711 230.675 24.6122 231.685 24.961C232.355 25.19 232.973 25.549 233.504 26.0172C234.035 26.4855 234.469 27.0539 234.78 27.6899C235.091 28.3259 235.273 29.017 235.317 29.7236C235.361 30.4302 235.264 31.1386 235.034 31.808Z" fill="#6F6F4C"/>
<path fill-rule="evenodd" clip-rule="evenodd" d="M231.018 32.98C230.855 33.4574 230.554 33.8758 230.153 34.1822C229.753 34.4885 229.27 34.669 228.766 34.7008C228.263 34.7327 227.761 34.6144 227.325 34.361C226.889 34.1076 226.538 33.7304 226.316 33.2773C226.094 32.8241 226.012 32.3154 226.079 31.8155C226.147 31.3155 226.361 30.8469 226.696 30.4689C227.03 30.0909 227.468 29.8205 227.956 29.692C228.444 29.5635 228.959 29.5826 229.436 29.747C229.752 29.855 230.044 30.0245 230.295 30.2455C230.546 30.4666 230.751 30.735 230.898 31.0353C231.045 31.3356 231.131 31.6619 231.152 31.9957C231.172 32.3294 231.127 32.6639 231.018 32.98Z" fill="#0F0F0F"/>
<path fill-rule="evenodd" clip-rule="evenodd" d="M219.354 28.163C219.191 28.6406 218.89 29.0591 218.49 29.3656C218.089 29.6721 217.606 29.8527 217.103 29.8847C216.599 29.9166 216.097 29.7985 215.661 29.5451C215.225 29.2917 214.874 28.9146 214.652 28.4614C214.43 28.0083 214.348 27.4995 214.415 26.9995C214.483 26.4995 214.697 26.0308 215.031 25.6528C215.365 25.2747 215.804 25.0044 216.292 24.8759C216.78 24.7474 217.295 24.7666 217.772 24.931C218.088 25.0391 218.38 25.2084 218.631 25.4294C218.882 25.6504 219.086 25.9187 219.233 26.2189C219.38 26.5191 219.467 26.8453 219.487 27.1789C219.508 27.5125 219.463 27.8469 219.354 28.163Z" fill="#0F0F0F"/>
<path fill-rule="evenodd" clip-rule="evenodd" d="M240.113 23.545C241.368 22.763 240.013 19.92 237.859 18.423C236.133 17.223 233.368 17.087 233.21 18.506C233.018 20.228 235.055 20.173 236.498 21.381C237.941 22.589 238.9 24.3 240.113 23.545Z" fill="#6F6F4C"/>
<path fill-rule="evenodd" clip-rule="evenodd" d="M217.631 14.022C217.175 12.615 220.044 11.322 222.653 11.56C224.747 11.76 226.947 13.436 226.153 14.622C225.19 16.063 223.668 14.707 221.788 14.7C219.924 14.693 218.071 15.382 217.631 14.022Z" fill="#6F6F4C"/>
<path fill-rule="evenodd" clip-rule="evenodd" d="M228.059 4.89999C228.059 4.89999 231.714 10.95 241.123 18.268C250.532 25.586 257.292 27.636 257.292 27.636L253.622 19.377L236.962 6.41799L228.059 4.89999Z" fill="#FF9100"/>
<path fill-rule="evenodd" clip-rule="evenodd" d="M247.04 3.557L253.906 8.9C254.485 9.31829 254.93 9.89476 255.189 10.5602C255.448 11.2256 255.51 11.9516 255.366 12.651L253.622 19.372L236.962 6.418L243.043 3.064C243.686 2.75138 244.405 2.63157 245.114 2.71905C245.824 2.80654 246.492 3.09758 247.04 3.557Z" fill="#FF9100"/>
<path fill-rule="evenodd" clip-rule="evenodd" d="M244.838 13.481C242.039 11.3176 239.399 8.95655 236.938 6.41601H236.965L239.304 5.12601C241.55 7.36941 243.936 9.46891 246.446 11.412C248.947 13.3667 251.569 15.1616 254.296 16.786L253.625 19.373L253.633 19.399C250.564 17.6389 247.625 15.6612 244.838 13.481Z" fill="#6F6F4C"/>
<path fill-rule="evenodd" clip-rule="evenodd" d="M228.059 4.89999L230.007 5.23299C233.455 9.65009 237.466 13.5975 241.938 16.975C246.361 20.5226 251.237 23.4646 256.438 25.723L257.288 27.636C257.288 27.636 250.528 25.585 241.119 18.268C231.71 10.951 228.059 4.89999 228.059 4.89999Z" fill="#DC8403"/>
<path d="M241.194 134.906C248.404 134.863 253.736 140.169 249.894 144.843C247.044 148.313 237.834 154.443 232.37 158.125C228.956 160.425 221.639 165.278 221.639 165.278C220.957 165.752 220.118 165.942 219.299 165.807C218.479 165.671 217.746 165.221 217.253 164.553C217.014 164.214 216.845 163.83 216.756 163.425C216.666 163.02 216.659 162.601 216.733 162.192C216.808 161.784 216.963 161.395 217.189 161.047C217.416 160.699 217.709 160.4 218.053 160.167C217.367 160.604 216.538 160.757 215.742 160.592C214.946 160.428 214.245 159.959 213.789 159.286C213.333 158.612 213.158 157.788 213.3 156.987C213.443 156.187 213.892 155.473 214.553 154.999C214.21 155.232 213.824 155.394 213.417 155.476C213.01 155.558 212.592 155.558 212.185 155.476C211.778 155.394 211.392 155.232 211.049 154.999C210.706 154.767 210.412 154.468 210.186 154.12C209.747 153.414 209.601 152.566 209.778 151.754C209.955 150.943 210.441 150.232 211.134 149.773C211.134 149.773 218.309 144.766 221.69 142.473C231.165 136.033 235.93 134.938 241.194 134.906Z" fill="#A6A642"/>
<path d="M228.5 107.565C159.645 93.565 121.95 104.978 80.4 115.654C79.8 115.809 79.226 116.017 78.854 115.519C78.536 115.09 78.468 114.277 78.978 114.119C122.67 101.008 162.389 89.204 229.839 103.945C229.968 103.988 230.087 104.058 230.188 104.149C230.29 104.24 230.371 104.351 230.428 104.475C230.485 104.599 230.516 104.733 230.519 104.869C230.523 105.005 230.498 105.141 230.447 105.267L229.866 106.936C229.757 107.192 229.557 107.398 229.305 107.515C229.052 107.631 228.765 107.649 228.5 107.565Z" fill="#B73A61"/>
<path d="M217.48 100.941C218.035 102.477 218.122 104.142 217.731 105.728C217.339 107.313 216.486 108.747 215.28 109.847C214.073 110.947 212.568 111.666 210.953 111.91C209.339 112.155 207.688 111.916 206.21 111.222C204.731 110.529 203.492 109.412 202.648 108.015C201.804 106.617 201.393 105 201.468 103.369C201.543 101.737 202.1 100.165 203.069 98.8504C204.037 97.5358 205.374 96.5379 206.91 95.983C207.929 95.6144 209.012 95.4503 210.095 95.5C211.178 95.5497 212.24 95.8123 213.222 96.2727C214.203 96.7331 215.085 97.3823 215.815 98.1833C216.546 98.9843 217.111 99.9214 217.48 100.941Z" fill="#E45A48"/>
<path d="M215.206 101.763C215.598 102.849 215.66 104.027 215.383 105.148C215.106 106.269 214.503 107.283 213.65 108.061C212.797 108.839 211.732 109.347 210.591 109.52C209.449 109.693 208.282 109.523 207.236 109.033C206.191 108.543 205.314 107.753 204.718 106.765C204.121 105.776 203.831 104.633 203.884 103.479C203.937 102.326 204.331 101.214 205.016 100.285C205.701 99.3549 206.646 98.6494 207.732 98.257C208.453 97.9964 209.218 97.8803 209.984 97.9155C210.75 97.9507 211.501 98.1363 212.195 98.4619C212.889 98.7875 213.512 99.2466 214.029 99.813C214.545 100.379 214.945 101.042 215.206 101.763Z" fill="#B73A61"/>
<path d="M232.457 87.754C237.652 86.29 241.332 88.018 243.057 90.928C244.782 93.838 244.54 97.895 240.766 101.753C235.666 106.97 222.376 114.087 222.376 114.087C221.667 114.519 220.817 114.658 220.007 114.473C219.197 114.289 218.491 113.796 218.038 113.1C217.82 112.747 217.674 112.354 217.609 111.945C217.545 111.535 217.562 111.116 217.661 110.713C217.76 110.31 217.939 109.931 218.186 109.598C218.433 109.265 218.744 108.985 219.101 108.773C218.749 108.982 218.359 109.12 217.953 109.178C217.547 109.237 217.134 109.215 216.737 109.114C216.34 109.012 215.967 108.834 215.639 108.588C215.311 108.343 215.034 108.035 214.825 107.683C214.616 107.331 214.478 106.941 214.42 106.535C214.361 106.129 214.383 105.716 214.484 105.319C214.586 104.922 214.764 104.549 215.01 104.221C215.255 103.893 215.563 103.616 215.915 103.407C215.558 103.619 215.163 103.757 214.752 103.814C214.341 103.872 213.923 103.846 213.522 103.74C213.121 103.634 212.745 103.449 212.416 103.196C212.087 102.943 211.812 102.627 211.607 102.266C211.212 101.536 211.117 100.68 211.344 99.8807C211.57 99.0817 212.099 98.4026 212.819 97.988C212.819 97.988 225.432 89.734 232.457 87.754Z" fill="#A6A642"/>
<path d="M79.421 107.309L84.194 113.782" stroke="#CFD2FF" stroke-linecap="round"/>
</svg>
