<svg width="184" height="85" viewBox="0 0 184 85" fill="none" xmlns="http://www.w3.org/2000/svg">
<path fill-rule="evenodd" clip-rule="evenodd" d="M26.715 0.437012L15.697 0.257019C15.6397 0.515319 15.6434 0.783436 15.708 1.04002C16.398 3.79002 29.928 7.43002 56.138 7.99002C40.194 6.59502 28.731 3.78001 26.715 0.437012Z" fill="white"/>
<path fill-rule="evenodd" clip-rule="evenodd" d="M117.9 1.93103C108.772 3.42331 99.5419 4.20532 90.293 4.27003C91.933 4.30003 93.603 4.32004 95.293 4.32004C105.926 4.43349 116.55 3.6847 127.062 2.08104L117.9 1.93103Z" fill="white"/>
<path opacity="0.2" d="M149.1 14.7C138.5 14.8 129 13.6 122.2 11.6C106.854 14.0556 91.3413 15.326 75.8 15.4C34 15.8 0 8.9 0 0V52.3C0 60.7869 3.37142 68.9263 9.37258 74.9274C15.3737 80.9286 23.5131 84.3 32 84.3H151.1C159.587 84.3 167.726 80.9286 173.727 74.9274C179.729 68.9263 183.1 60.7869 183.1 52.3V3C183.1 9.2 169.8 14.5 149.1 14.7Z" fill="#9D9FFC"/>
<path opacity="0.45" d="M0 0C0 8.9 34 15.8 75.8 15.4C91.3413 15.326 106.854 14.0556 122.2 11.6C129 13.6 138.5 14.8 149.1 14.7C169.8 14.5 183.1 9.2 183.1 3L0 0Z" fill="#BAC0FF"/>
</svg>
